<svg xmlns="http://www.w3.org/2000/svg" viewBox="0 0 83.93 39.83"><g data-name="L2"><g data-name="L1"><path d="M19.71 0v25.94H14.9V24.8a10.94 10.94 0 0 1-5.44 1.44A9.33 9.33 0 0 1 0 16.58a9.27 9.27 0 0 1 9.46-9.67 11.29 11.29 0 0 1 5.44 1.42V0zM14.9 20.3v-7.5a7.08 7.08 0 0 0-4.58-1.58 5.34 5.34 0 0 0-5.57 5.37 5.25 5.25 0 0 0 5.57 5.33 7 7 0 0 0 4.58-1.62zm13-2.3a5.16 5.16 0 0 0 5.33 4.16A6 6 0 0 0 38 19.82l3.06 2.55a10.29 10.29 0 0 1-8.43 3.85 9.37 9.37 0 0 1-9.56-9.63 9.38 9.38 0 0 1 9.56-9.67c5.75 0 9.08 4.16 9.08 10v1.07zm0-3.06h9.25a4.12 4.12 0 0 0-4.51-4.16 4.87 4.87 0 0 0-4.71 4.12zM45.24 0h4.82v25.94h-4.82zM74 16.58c0 5.33-4.58 9.63-10.22 9.63s-10.22-4.3-10.22-9.63a10.23 10.23 0 0 1 20.43 0zm-4.71 0a5.51 5.51 0 0 0-11 0 5.51 5.51 0 0 0 11 0z"/><circle cx="78.06" cy="23.25" r="2.69"/><path d="M72 35.34c0 2.5-1.67 4.5-4.84 4.5s-4.8-2-4.8-4.5v-6.52h2.16v5.95c0 2.05.91 3 2.64 3s2.67-1 2.67-3v-5.95H72zm8.61 2.16h-4.86l-1 2.21h-2.31l5.19-10.89h1.1l5.21 10.89H81.6zm-4.08-1.84h3.29l-1.65-3.6z"/></g></g></svg>