<svg xmlns="http://www.w3.org/2000/svg" viewBox="0 0 100.96 90.76"><defs><style>.cls-1{fill:#231f20}</style></defs><g id="Слой_2" data-name="Слой 2"><g id="Слой_1-2" data-name="Слой 1"><path class="cls-1" d="M46.79 24.54c.15.1.37 0 .61-.14.5-.26.61-.71.78-3.41.14-2.21-.38-3-.62-3.26a.62.62 0 0 0-.44-.23c-.37 0-.41.44-.41.84s0 4.48-.09 5.42c0 .45 0 .69.16.78m-10 21.12l-.44.13-.61-2.07.44-.13.61 2.07zm.31-2.34l.45-.12 1.19 1.25-.37-1.45.41-.1.53 2.09-.44.11-1.21-1.27.37 1.48-.4.11-.53-2.1zm4.19-.95l.07.37-.63.13.34 1.74-.43.09-.36-1.75-.63.13-.07-.36 1.71-.35zm2.43.01l-1.11.17.07.44 1.02-.15.05.37-1.01.15.08.56 1.16-.18.06.38-1.6.24-.32-2.13 1.54-.23.06.38zM46 41.8a.5.5 0 0 1 .22.13.68.68 0 0 1 .12.17.59.59 0 0 1 .06.22.62.62 0 0 1 0 .31.44.44 0 0 1-.23.24.41.41 0 0 1 .23.15.72.72 0 0 1 .1.33v.14a1.21 1.21 0 0 0 0 .2.18.18 0 0 0 .09.11v.05l-.49.05v-.11a1 1 0 0 1 0-.18v-.2a.42.42 0 0 0-.1-.27.35.35 0 0 0-.26 0h-.43l.08.84h-.44l-.21-2.15 1-.1a1 1 0 0 1 .34 0m-.9.41l.06.58h.48a.53.53 0 0 0 .21-.06.24.24 0 0 0 .1-.26.27.27 0 0 0-.15-.25.46.46 0 0 0-.21 0zm2.1-.5l.48-.02.9 1.45-.07-1.49.43-.02.09 2.16-.45.01-.93-1.47.07 1.52-.42.01-.1-2.15zm3.32-.09h.51l.75 2.16h-.49l-.14-.44h-.79l-.15.44h-.48zm0 1.34h.55l-.3-.89zm3.42-1.23l-.02.37-.64-.03-.09 1.78-.45-.02.09-1.79-.65-.03.02-.37 1.74.09z"/><path class="cls-1" transform="rotate(-85.05 54.9 42.81)" d="M53.82 42.59h2.16v.45h-2.16z"/><path class="cls-1" d="M57.56 44a1.12 1.12 0 0 1-1.4-.18 1.17 1.17 0 0 1-.21-.92 1.14 1.14 0 0 1 .44-.84 1.11 1.11 0 0 1 1.4.18 1.16 1.16 0 0 1 .21.92 1.18 1.18 0 0 1-.44.84m-.24-.37a1.08 1.08 0 0 0 .14-1.11.55.55 0 0 0-.84-.11 1.06 1.06 0 0 0-.14 1.1.55.55 0 0 0 .84.11m1.69-1.38l.47.09.55 1.62.28-1.47.41.07-.39 2.13-.45-.08-.57-1.66-.28 1.5-.41-.08.39-2.12zm3.27.67l.5.12.22 2.27-.48-.11v-.46l-.77-.18-.24.39-.51-.12zm-.34 1.3l.53.13-.06-.89zm2.37-.79l.43.13-.5 1.7 1.03.31-.11.36-1.46-.43.61-2.07zm-27.6-1.65a.79.79 0 0 1-.47.3l-.43.13.22.74-.43.13L35 41l.89-.26a.75.75 0 0 1 .54 0 .84.84 0 0 1 .3 1m-.55-.65a.35.35 0 0 0-.25 0l-.38.11.18.61.38-.11a.35.35 0 0 0 .2-.14.31.31 0 0 0 0-.26.31.31 0 0 0-.15-.21m2.04 1.25l-.49-2.1.44-.11.18.81.81-.19-.19-.8.45-.11.48 2.1-.44.11-.21-.94-.81.19.22.94-.44.1zm3.25-.7l-.44.08-.39-2.12.44-.08.39 2.12zm.85-2.33l.45-.07L43 41l1.06-.16.06.39-1.51.21-.31-2.13z"/><path class="cls-1" transform="rotate(-5.81 45.29 40.03)" d="M45.03 38.94h.45v2.16h-.45z"/><path class="cls-1" d="M48.15 39.95a.82.82 0 0 1-.53.19h-.44v.77h-.45l-.13-2.16.92-.05a.74.74 0 0 1 .52.14.65.65 0 0 1 .22.51.68.68 0 0 1-.16.55m-.39-.76a.35.35 0 0 0-.24-.06h-.4v.63h.4a.29.29 0 0 0 .3-.34.3.3 0 0 0-.1-.23m4.85-.43h.65l-.07 2.16h-.42v-1.81l-.46 1.8h-.43L51.5 39v1.81H51l.06-2.16h.65l.34 1.71zm3.4 2.2a1 1 0 0 1-.73.19.93.93 0 0 1-.68-.31 1.36 1.36 0 0 1 .16-1.79 1 1 0 0 1 .73-.19.94.94 0 0 1 .68.32 1.15 1.15 0 0 1 .24.91 1.18 1.18 0 0 1-.41.86m-.25-.36a1.07 1.07 0 0 0 .1-1.11.55.55 0 0 0-.84-.08.85.85 0 0 0-.21.54.86.86 0 0 0 .11.57.52.52 0 0 0 .4.23.51.51 0 0 0 .44-.16M59 39.4a.51.51 0 0 1 .18.18.64.64 0 0 1 .08.2.59.59 0 0 1 0 .23.66.66 0 0 1-.12.29.44.44 0 0 1-.29.17.4.4 0 0 1 .18.2.69.69 0 0 1-.03.33v.14a1.06 1.06 0 0 0 0 .2.18.18 0 0 0 .06.13v.05l-.49-.07a1.16 1.16 0 0 1 0-.12.87.87 0 0 1 0-.19v-.2a.4.4 0 0 0 0-.28.36.36 0 0 0-.24-.11l-.44-.07-.13.84-.44-.07.32-2.13 1 .15a.92.92 0 0 1 .33.11m-1 .17l-.09.58.48.07a.54.54 0 0 0 .22 0 .24.24 0 0 0 .16-.22.28.28 0 0 0-.08-.28.45.45 0 0 0-.2-.07zm3.97.45a.56.56 0 0 1 .17.19.6.6 0 0 1 .06.43.65.65 0 0 1-.14.28.42.42 0 0 1-.3.15.41.41 0 0 1 .17.21.73.73 0 0 1 0 .34v.14a1.17 1.17 0 0 0 0 .2.19.19 0 0 0 .06.14v.05l-.49-.1v-.12a.92.92 0 0 1 0-.19v-.2a.41.41 0 0 0 0-.28.36.36 0 0 0-.24-.12l-.46-.12-.18.83-.43-.09.45-2.11 1 .21a1 1 0 0 1 .32.13m-1 .12l-.12.57.47.1a.49.49 0 0 0 .22 0 .24.24 0 0 0 .17-.21.27.27 0 0 0-.06-.28.43.43 0 0 0-.2-.08z"/><path class="cls-1" transform="rotate(-75.41 63.43 41.38)" d="M62.35 41.16h2.16v.45h-2.16z"/><path class="cls-1" d="M65 42.25a.46.46 0 0 0 0 .23.47.47 0 0 0 .32.24.9.9 0 0 0 .26 0 .25.25 0 0 0 .25-.18.18.18 0 0 0 0-.19.92.92 0 0 0-.25-.18l-.21-.12a1.56 1.56 0 0 1-.4-.29.54.54 0 0 1-.08-.51.63.63 0 0 1 .34-.4.93.93 0 0 1 .65 0 1 1 0 0 1 .51.35.65.65 0 0 1 .09.58l-.42-.13a.32.32 0 0 0-.08-.32.64.64 0 0 0-.24-.13.49.49 0 0 0-.29 0 .23.23 0 0 0-.16.16.19.19 0 0 0 0 .2 1.35 1.35 0 0 0 .25.17l.33.2a1 1 0 0 1 .31.26.53.53 0 0 1 .05.48.62.62 0 0 1-.36.4.94.94 0 0 1-.67 0 1 1 0 0 1-.58-.38.65.65 0 0 1-.08-.58zm-14.46-7.56c4.8 0 8.7-4.69 8.7-10.46s-3.9-10.46-8.7-10.46c-4.8 0-8.7 4.69-8.7 10.46s3.9 10.45 8.7 10.46m0-20.41c4.52 0 8.2 4.46 8.2 10s-3.68 10-8.2 10-8.2-4.47-8.2-10 3.68-10 8.2-10"/><path class="cls-1" d="M44.88 29.84c-.1.06-.17.08-.21 0a.11.11 0 0 1 0-.09.55.55 0 0 1 0-.15c.43-1.26.58-5.08.58-7.83 0-1.19 0-2.18-.08-2.67v-.28c0-.38.12-.44.36-.54a.9.9 0 0 0 .58-.38 1.29 1.29 0 0 1 1.16-.87c.49 0 2.32.66 2.32 3.9 0 2.07-.89 3.53-2.52 4.1h-.05c-.22.08-.24.28-.26.45-.35 3.05-1.54 4-1.9 4.26M50.67 18v-.2c0-.02.08 0 .16.17v.06A28.15 28.15 0 0 1 52.75 23a.25.25 0 0 0 0 .09.44.44 0 0 0 0-.09 29.13 29.13 0 0 1 2-5.06c.16-.22.21-.25.25-.24s0 .1 0 .21V18a33.85 33.85 0 0 0 1.1 11.76c.06.18 0 .22 0 .25s-.11 0-.17-.1c-1.6-1.07-2.42-4.44-2.44-4.71s0-.14 0-.15c-.13.43-.5 2.14-.75 3.26l-.21 1v.11c0 .08 0 .11-.06.11s0 0-.11-.22-.38-1.43-.64-2.44l-.36-1.39a.6.6 0 0 0-.05-.14l-.2.62c-.38 1.24-.86 2.78-2 3.57-.28.21-.33.21-.36.18s0-.11.1-.26c1.63-3.27 2.35-8.92 1.87-11.41m-.13 16.15c4.52 0 8.2-4.47 8.2-10s-3.68-10-8.2-10-8.2 4.46-8.2 10 3.68 10 8.2 10M50.06 3a.42.42 0 1 1 .42.42.42.42 0 0 1-.42-.42m1.33 0a.92.92 0 1 0-.92.92.92.92 0 0 0 .92-.92"/><path class="cls-1" d="M82.69 17.43a.27.27 0 0 1 .07.14c0 .06-.1.15-.3.21a.89.89 0 0 1-.72-.06h-.07c-.93-.35-.58-.27-.71.61 0 .12 0 .24-.05.37a10.64 10.64 0 0 1-.42 1.86l-.07.28v.06a3.32 3.32 0 0 1-.36-.34l-.18-.19a4.5 4.5 0 0 1-1.58-2.56 1.33 1.33 0 0 1 .37-.91.6.6 0 0 0 .28-.45c0-.29-.31-.43-.53-.53l-.1-.05a3.21 3.21 0 0 0-2.48 0 2.67 2.67 0 0 0-1.37 2.14 3.77 3.77 0 0 0 1.41 3.74 1.86 1.86 0 0 0-.19.54 3.28 3.28 0 0 1-.11.41l-.15.54c-.5-.77-1.2-1.94-1.41-2.33a5 5 0 0 1-.19-4.33A3.14 3.14 0 0 1 75.39 15a2.9 2.9 0 0 1 2.18-.1 5 5 0 0 0 1.15.37 3.49 3.49 0 0 0 1.28-.13 2.29 2.29 0 0 1 .66-.12 4.82 4.82 0 0 1 .91.31 4.18 4.18 0 0 0 .57.21 1.28 1.28 0 0 0 .29 0 1.17 1.17 0 0 1 .42 0 .79.79 0 0 1-.15.36 1.68 1.68 0 0 0-.2.78 1.07 1.07 0 0 0 .23.7M82 19.86a5.74 5.74 0 0 0-.64 2.14 1 1 0 0 0 .49.78v.1l-.18.1a2 2 0 0 1-.72.23.61.61 0 0 1-.49-.17 3.32 3.32 0 0 1-.68-2c.35.34.57.45.78.39s.29-.33.32-.51v-.18a11.09 11.09 0 0 0 .46-2 2.85 2.85 0 0 1 .11-.57h.07l.18.07a3 3 0 0 1 .3 1.22 1 1 0 0 1-.07.4M76 22.77l.12-.47a2.7 2.7 0 0 1 .67-1.11v.14l.05.18.28.86c.27.7.17.78.95.45l.21-.08a1.12 1.12 0 0 1 0 .17c0 .18.31 1.32.38 1.6.25 1 0 .9.8.57.56-.23.88-.17.91-.12.2.33-.77 1.89-1.21 2.29a4.75 4.75 0 0 0-.74 1.15v.06a5.62 5.62 0 0 1-.73 1.33 3 3 0 0 1-3.84.76h-.06a3.57 3.57 0 0 0 .25-1 2.28 2.28 0 0 0 1.66.45 2.5 2.5 0 0 0 2.3-2.5 1.94 1.94 0 0 0-1.88-1.9 2.08 2.08 0 0 0-1.14.22v-.24c0-.36.07-1 .51-1.18l.25-.09c.76-.2.73-.2.22-.57l-.08-.05a.18.18 0 0 1 0-.11 3.6 3.6 0 0 1 .18-.79m-1.18 9.74l.14.1c.29.21.88.66.83 1.07s0 1.68 0 1.69a7.34 7.34 0 0 0 .16 1c.06.32.13.65.14.81a5.75 5.75 0 0 1-.27 1.93.44.44 0 0 1-.33.2.47.47 0 0 1-.37-.07l-.18-.07c-.29-.8-.4-.37-.67.07l-.11.07c-.29.18-.55-.09-.62-.18a.3.3 0 0 1-.09-.21.35.35 0 0 0 0-.07c.13-.72.1-.65-.47-.33l-.04.06c-.06 0-.31.13-.36.09s-.18-.17-.18-.43a2.62 2.62 0 0 1 1.2-1.45 1.64 1.64 0 0 0 .78-1.53v-.26a1.5 1.5 0 0 0-.77-1.2 8.48 8.48 0 0 0-1.42-.24 4.93 4.93 0 0 1-2.4-1.12A6.28 6.28 0 0 1 68 29.54a1.11 1.11 0 0 1 0-.28 6.7 6.7 0 0 1 .46-2.15 2.5 2.5 0 0 0 .21-1.11v-.13a9.11 9.11 0 0 1 .83.72c.91.89.75.48.27-.17a4.41 4.41 0 0 0-1-1.08 5.47 5.47 0 0 0-1.87-.8 4 4 0 0 1-1.63-.64l.16-.1.81-.55a1.05 1.05 0 0 0 .56.42 1.24 1.24 0 0 0 1.17-.4 3.31 3.31 0 0 0 .31-.61l.11-.25a6.76 6.76 0 0 1 1-.74c.23-.11.17-.16-.06-.12s-1.23.3-1.4.6l-.15.32a2.75 2.75 0 0 1-.25.52.77.77 0 0 1-.64.2.59.59 0 0 1-.29-.25 1.2 1.2 0 0 0 .17-.18.25.25 0 0 0-.08-.34.26.26 0 0 0-.35.08 10.62 10.62 0 0 1-1.22.89 6.91 6.91 0 0 1-1 .55l-.28.14-.14.06a.89.89 0 0 0-.66.86c-.05.53-.25.91-.41.93a.69.69 0 0 1-.49-.24.91.91 0 0 1-.1-.14c-.16-.43-.23-.43-.5-.11-.08.1-.4 0-.5 0s-.25-.13-.21-.3c.18-.88.18-.92-.47-.74-.1 0-.16 0-.22-.15s0-.34.15-.72a2.22 2.22 0 0 1 .69-.83l.46-.42a3.31 3.31 0 0 1 1.21-.52 4.42 4.42 0 0 0 1.45-.78 8.22 8.22 0 0 1 1.64-1.1c.26-.12.24-.21-.18-.09a7.07 7.07 0 0 0-1.82.84l-.09.08c-.5-1.71-.08-2.36.21-2.79h.65a.53.53 0 0 0 .16.4 1.08 1.08 0 0 0 1 .12s1.42-.6 1.69-.78l.29-.16c0 .31.1.85.19 1.24a.89.89 0 0 0 .48.7.58.58 0 0 0 .54 0h.06a2.06 2.06 0 0 0 1-1.11l.1-.2v.07l.08.16.08.18a15.14 15.14 0 0 1 1.76 5.56l.1.94a2.86 2.86 0 0 0 .96 1.64 1 1 0 0 1 .16.18 4.55 4.55 0 0 1 .43 1.45 1.46 1.46 0 0 0 0 .33 3.77 3.77 0 0 1-.17 1.53l-.29-.43c-.59-.89-1.78-1.66-.42.27a12.18 12.18 0 0 0 2.06 2.48m1.57 6.36h6L80.8 41.6l1.47 2.87H67.65l1.19-4.05-.21-.09c-.67-.25-1.37-.48-2.07-.71l.94-.74h4.63a1.15 1.15 0 0 0 .23.23.82.82 0 0 0 .72 0 .88.88 0 0 0 .19.38 1 1 0 0 0 1.27.28l.22-.15a1 1 0 0 0 .79.21.93.93 0 0 0 .7-.46 1.87 1.87 0 0 0 .17-.49m-10.13 8.5a49.32 49.32 0 0 0-15.72-2.68 49.24 49.24 0 0 0-15.71 2.67l-1.94-6.66a53.71 53.71 0 0 1 17.65-3.08 53.81 53.81 0 0 1 17.67 3.09zM18.6 44.46l1.47-2.87-1.57-2.71h4.88a.57.57 0 0 0 0 .06.64.64 0 0 0 .08.32.71.71 0 0 0 .53.33 4.24 4.24 0 0 0 .85.06h.11c.6 0 1.26 0 1.47-.76h7.17l1 .73c-.71.22-1.42.46-2.1.71l-.21.08 1.19 4.06zm4.63-6.78h-.47a.16.16 0 0 1-.09 0c0-.07 0-.37.06-.53a3.36 3.36 0 0 0 .07-.49 3.65 3.65 0 0 1 .06-.49 7.53 7.53 0 0 0 .19-1.71v-1.24c0-.46.06-.59.09-.63s.08 0 .17 0h.32A3 3 0 0 0 26 31.22c.49-.79.61-1.57.72-3.51a5.19 5.19 0 0 1 2.06-3.65l.34-.19c.45-.25 1-.61 1.47-.88a1 1 0 0 0 .53-.52 8.16 8.16 0 0 1 .34-.83 9.61 9.61 0 0 0 .54-1.51 5.53 5.53 0 0 0-.19-3.25H32a.63.63 0 0 0 .68-.33 1.65 1.65 0 0 0 .59.31c.59.22 1.32.4 1.67.09l.05.06a17.56 17.56 0 0 0 2.52 1.81c1 .66 2 1.33 2.45 1.71.25.2.34.3.34.57a2.27 2.27 0 0 1 0 .25c0 .21-.09.51-.15.82a11.77 11.77 0 0 0-.2 1.63 15.3 15.3 0 0 0 .05 1.75v.26a2.19 2.19 0 0 1 0 .29.36.36 0 0 1-.17.36 11.94 11.94 0 0 1-1.41.55c-.34.11-.53.18-.62.23a.39.39 0 0 1-.34 0c-.11-.07-.14-.26-.14-.4v-.36c0-.49 0-.52.33-.66a.29.29 0 0 1 .24 0 .82.82 0 0 0 .58 0 1.36 1.36 0 0 0 .81-.8c.19-.34.08-.75.13-1.5v-.51c0-.38.24-.91-.75-1.23a30.96 30.96 0 0 0-3-.88 3 3 0 0 1-1.07-.38.24.24 0 0 0-.34 0 .26.26 0 0 0 0 .35 3.08 3.08 0 0 0 1.34.52c.21 0 .89.23 2.93.87l.14.06-.25.5A9.92 9.92 0 0 1 36.83 25a4.28 4.28 0 0 1-2.36 1.15 4.52 4.52 0 0 0-3.79 2.6 17.52 17.52 0 0 0-.75 1.67 5 5 0 0 1-.53 1.11c-.32.38-1.2.84-1.63.65a1.25 1.25 0 0 0-1.27-.06c-.2.11-.13.27-.53.24-.14 0-.64 0-.65.1s.34.27.48.28c.77.07.68 0 .94-.17s.25-.15.68 0a1 1 0 0 1-.62.68 3.26 3.26 0 0 1-1.35 0c-.49-.05-1.19.08-1.26.48v.21a7.47 7.47 0 0 0-.15.79 2.4 2.4 0 0 0 .32 1.52c.1.11.4.36.69.6l.47.39.08.07c.21.18.43.36.41 1.1s-.27.68-1 .71h-.11a1.29 1.29 0 0 1-.87-.2c-.15-.1.09-.42.13-.52a.79.79 0 0 0 0-.16c.14-.58.52-.56-.54-.57h-.35m-.37-9.76c-.52-1.05-.07-2.66 1.21-4.29l.34-.46.15-.18a3 3 0 0 0 .68-1.61 1.08 1.08 0 0 0 0-.29.85.85 0 0 0-.57-.58.86.86 0 0 1-.24-.12 1.58 1.58 0 0 1 .28-.23l.12-.08a1.11 1.11 0 0 1 .79-.17h.13a.66.66 0 0 0 .55 0c.21-.13.36-.41.48-1a3.47 3.47 0 0 0-.54-2.57 2.86 2.86 0 0 0-2.35-1.31 1.18 1.18 0 0 0-1 1 1.88 1.88 0 0 0-.09.54 2.26 2.26 0 0 0 .66 1.6h-.23c-.3 0-1.28-.25-1.4.52v.06a2.15 2.15 0 0 1-.43 1.1 2.1 2.1 0 0 1-.39.53 2.53 2.53 0 0 1-.09-.25V20a2.88 2.88 0 0 1-.11-.83v-.07a1.08 1.08 0 0 1 0-.3.87.87 0 0 0 .08-.31.29.29 0 0 0-.12-.23c-.22-.16-.41 0-.89.36s-.52.26-.76.23a2.93 2.93 0 0 1-.5-.14l-.22-.05a5.91 5.91 0 0 0 1.25-1.53.47.47 0 0 0 0-.25 1.93 1.93 0 0 0-.94-.72 11.36 11.36 0 0 1 1.33-.38 5.18 5.18 0 0 0 2-.83 6.59 6.59 0 0 1 1.92-.73c1-.23 1.91.32 3 1.87a3.57 3.57 0 0 1 .54 2.09 5.65 5.65 0 0 1-.4 2.15l-.06.12a1.52 1.52 0 0 0-.22.67.77.77 0 0 0 .4.65c.23.16.34.27.34.42a.85.85 0 0 1-.17.42l-.37.58a9 9 0 0 0-.57 1c0 .05-.18.31-.2.25v-.19l-.08-.36c-.13-.78-.26-.94-.46-1a.32.32 0 0 0-.34.19l-.22.39-.22.36-.23.3-.24.34c-.66.89-1.65 2.24-.61 3.53a2.09 2.09 0 0 0 2.31.37c0 .37-.05.68-.09.95-1.59 0-2.79-.49-3.23-1.37m-1.14-6.85l-.25.39c-.38.63-.68 1.24-.91 1.69l-.09.2c-.18.39-.22.4-.33.38a1.63 1.63 0 0 1 .05-.26 2 2 0 0 0 .08-.47.34.34 0 0 0 0-.07 5.72 5.72 0 0 0-1-1.87l-.04-.09a1.62 1.62 0 0 1-.18-.84v-.67a1.45 1.45 0 0 0 1.14-.29v.05a3.7 3.7 0 0 0 .18 1v.09c.07.24.17.63.52.68s.59-.21 1-.83a2.54 2.54 0 0 0 .5-1.41h.08a3.84 3.84 0 0 1-.78 2.35m9.8-4.9a5.69 5.69 0 0 0-.54-.92l-.08-.09c-1-1.22-.75-.75-.87.17v.22a2.22 2.22 0 0 1 0 .31c0 .13-.07.18-.09.19s-.08 0-.29 0a1.88 1.88 0 0 1-1.31-1.34l-.11-.28c-.48-1.23-.34-.73-.73-.29l-.1.12a.41.41 0 0 1-.1.09 4.37 4.37 0 0 1-.63-1 .89.89 0 0 1 0-.31 4.91 4.91 0 0 1 .11-.85v-.2c.12-.41.17-.63 0-.79s-.36-.1-.74 0h-.07l-.2.05a6.16 6.16 0 0 0 .12-1.07A1.39 1.39 0 0 0 25 8.69a1.13 1.13 0 0 1-.22-.12 6.5 6.5 0 0 0 3-1.52l.2-.21a2.24 2.24 0 0 1 .88-.69.91.91 0 0 1 .65.22c.07 0 .21.17.3.26s.32.29.49.12a.26.26 0 0 0 0-.37c-.31-.38-.5-.83-.43-.92s.09-.08.64 0c.45.11 1.68.68 1 .11l.49-.11h.21a1.14 1.14 0 0 1 .34 0c.3.05.52.08.68.12h.25v.1a.19.19 0 0 0 0 .1c0 .3.63.89.63.9l1.13 1.1c.76.74 1.62 1.59 1.94 1.87s.39.74.32.85-.24.27-.36.23l-.14-.06c-.2-.09-.48-.22-.68 0a.4.4 0 0 0-.12.31 1.51 1.51 0 0 0 .11.49 1.12 1.12 0 0 1 .05.18c-.08.15-.4.16-.61 0a7.47 7.47 0 0 1-.65-.53l-.43-.36a3.82 3.82 0 0 0-1.49-.6 1.9 1.9 0 0 1-.3-.1l-.23-.08a1.57 1.57 0 0 1-.64-1.05c0-.14-.13-.2-.14 0a2.16 2.16 0 0 0 .36 1.51 3 3 0 0 0 .43.58l.22.27a6.31 6.31 0 0 0 2.06 1.87l.7.37c1.31.66 3.21 1.37 4 3.45a5.07 5.07 0 0 1 .1 2.79c-.52-.37-1.2-.82-1.86-1.26l-1.19-.8.25-.13a1.39 1.39 0 0 0 .73-.85c.09-.45-.25-.85-.56-1.35-.73-1.17-2.45-1.43-3.56-1.57l-.75-.12a7.62 7.62 0 0 1-3.42-1.53c-1.19-1.06-1-3.1-.91-3.7 0-.14 0-.44-.11-.12-.17.67-.72 3 .68 4.2a8.46 8.46 0 0 0 3.73 1.67l.71.11c1 .13 2.62.41 3.22 1.38.26.41.51.71.47.95s-.2.33-.5.52l-.47.22a4.77 4.77 0 0 1-.72-.57 1.31 1.31 0 0 0-.25-.27c-.81-.65-.45-.25-.51.13-.09.07-.48.08-1.17-.19-.4-.16-.43-.17-.6-.41-.5-.65-.4-.39-.52.16 0 .2-.07.26-.26.24a1.08 1.08 0 0 1-.52-.22M30 5a.55.55 0 0 0-.47.22v.06a8.48 8.48 0 0 1-.95-.71 1.28 1.28 0 0 1-.28-.31 2.5 2.5 0 0 1 1.2.22l.41.07zm1.9-.25a.68.68 0 0 1-.22.25l-.31-1a3 3 0 0 0 .24-.27 2.58 2.58 0 0 1 .84-.88v.07a1.46 1.46 0 0 1 0 .35 5.76 5.76 0 0 1-.5 1.44M28 5.15A1.43 1.43 0 0 1 27.33 4a.65.65 0 0 1 .38-.5 2.47 2.47 0 0 1 1.89.12 1.28 1.28 0 0 0 .38.05h.11l-.25-.77.56-.18.25.78.09-.08a1.49 1.49 0 0 0 .26-.31A2.42 2.42 0 0 1 32.42 2a.65.65 0 0 1 .6.19 1.1 1.1 0 0 1 .24.75 2.22 2.22 0 0 1-.07.55 8.33 8.33 0 0 1-.49 1.47h-.13a1.07 1.07 0 0 0-.25 0h-.07a6.16 6.16 0 0 0 .54-1.54 1.88 1.88 0 0 0 .06-.45.69.69 0 0 0-.13-.46s-.07-.08-.22-.06c-.36.06-.77.42-1.24 1.09a2.17 2.17 0 0 1-.4.39l.32.94.11.31-.77-.18v-.1l-.3-.9h-.06a2.43 2.43 0 0 1-.61 0 2.33 2.33 0 0 0-1.68-.16.3.3 0 0 0-.19.23 1.23 1.23 0 0 0 .51.8 9.22 9.22 0 0 0 1 .77h-.05a.9.9 0 0 0-.37 0h-.13q-.33-.24-.7-.55m15.35 31.39a6.64 6.64 0 0 0-.68.09c-.52.08-1.23.2-1.47 0a.29.29 0 0 1-.09-.24 4 4 0 0 1 1.32-3 10.93 10.93 0 0 0 5.51 3.92h.22c-1 0-1.92.12-2.9.23l-.13-.13a2.43 2.43 0 0 0-1.74-.78m-3.93 1a.69.69 0 0 0 .38-.1.7.7 0 0 0 .29-.5 2.87 2.87 0 0 0-.84-2.14 6.36 6.36 0 0 1 2-3.16 13.13 13.13 0 0 0 .82 1.32 4.53 4.53 0 0 0-1.51 3.48.77.77 0 0 0 .27.6c.42.34 1.19.22 1.87.11.24 0 .46-.07.63-.08a2.27 2.27 0 0 1 1.17.52c-1.47.18-2.94.41-4.39.7a2.19 2.19 0 0 1-.55-.42 1.65 1.65 0 0 1-.19-.3m-3.9-9.7a.8.8 0 0 1 1 .34l.24.42a4.79 4.79 0 0 1 .46.92c.06.37-1 1.48-1.63 1.82a11 11 0 0 0-1.2.78 1 1 0 0 0-.2.57.74.74 0 0 0 0 .19 1 1 0 0 0 .61.6 7.83 7.83 0 0 0 1.95.67 2.71 2.71 0 0 1 1.33.63 2.16 2.16 0 0 0 .71.41l.26.07a3.06 3.06 0 0 1 .58 1.48.66.66 0 0 1 0 .12.26.26 0 0 1-.07.17.87.87 0 0 1-.49 0h-.57c-.45-.06-.77-.12-.81-.37a3.23 3.23 0 0 0-.06-.34c-.21-.88-.19-.5-.57-.36h-.08c-.19 0-.38 0-1-.31a3.27 3.27 0 0 1-.67-.49 2.86 2.86 0 0 0-.72-.5l-.67-.26a9.15 9.15 0 0 1-1.12-.46h-.05c-.31-.16-.73-.39-.8-.68a.74.74 0 0 1 .21-.58 3.25 3.25 0 0 1 .77-.84c.09 0 .43-.32.35-.56s-.27-.42-1-.31a2.69 2.69 0 0 1-1.71-.32h-.07a15.66 15.66 0 0 1 .66-1.46 5.26 5.26 0 0 1 .56-.85l.14-.16a10.56 10.56 0 0 0 3.62-.15m3.42-3c-.2.36-.25.46-.55.57a.33.33 0 0 1-.27 0 .77.77 0 0 0-.55 0c-.72.26-.69.64-.66 1.17v.34a1.23 1.23 0 0 0 .13.55 1 1 0 0 0 .24.27.84.84 0 0 0 .79 0l.58-.21c.34-.12.74-.25 1.06-.39a14.92 14.92 0 0 0 1.32 4l-.12.12a6.74 6.74 0 0 0-2.17 3.37 1.9 1.9 0 0 1-.39-.26 3.2 3.2 0 0 0-1.57-.74 7.74 7.74 0 0 1-1.82-.63c-.19-.08-.31-.18-.33-.28a.42.42 0 0 1 .12-.33 5.13 5.13 0 0 1 1-.6c.52-.28 2-1.56 1.89-2.36a4.12 4.12 0 0 0-.53-1.09l-.23-.41a1.29 1.29 0 0 0-1.51-.59 11.87 11.87 0 0 1-3.06.21 3.91 3.91 0 0 1 2.23-.88 4.77 4.77 0 0 0 2.65-1.28 10.28 10.28 0 0 0 1.73-2.26L39 23v.34a5.3 5.3 0 0 1 0 1.49M26 36.98l-.07-.06-.48-.4-.66-.57a2.11 2.11 0 0 1-.19-.91 1.32 1.32 0 0 1 0-.19 6.88 6.88 0 0 1 .14-.74v-.19a1.18 1.18 0 0 1 .72-.11A3.42 3.42 0 0 0 27 33.7a1.47 1.47 0 0 0 .93-1 2.63 2.63 0 0 0 1.87-.88 3.76 3.76 0 0 0 .48-.94h.05a3.16 3.16 0 0 0 2 .35h.19a4.21 4.21 0 0 0-.83.92 1.35 1.35 0 0 0-.32.8.92.92 0 0 0 0 .19c.11.52.66.81 1.05 1h.06a9 9 0 0 0 1.19.49l.64.25a2.18 2.18 0 0 1 .59.41 4 4 0 0 0 .77.55c.61.32.94.45 1.34.35v.27c.09.66.78.75 1.24.8h.2l.23.05a2.36 2.36 0 0 0 .39.72l.29.23c-1.46.31-2.9.67-4.29 1.09l-1.41-1.06h-7.19a1.53 1.53 0 0 0-.59-1.39m41.61-7.28v.1l-.25.21c-.41.19-1-.24-1.31-.45-.65-.5-1.23-.61-.29.28a3.6 3.6 0 0 0 1.23.67 1.64 1.64 0 0 0 .17 1.61l.05.09a1.16 1.16 0 0 0 .23.29c.17.17.26.26.15.54s-1.16.39-1.54.39h-.11a7.55 7.55 0 0 0-2.12.57 3.57 3.57 0 0 0-1.23 1.3 4.83 4.83 0 0 1-.45.59.2.2 0 0 1-.15 0 .25.25 0 0 1-.18-.15l-.12-.41c-.09-.41 0-.63-.51-.28a.27.27 0 0 1-.26 0c-.12-.08-.26-.21-.2-.32l.11-.21c.31-.56.09-.55-.39-.5h-.11c-.06 0-.26-.11-.34-.34s0-.51.37-.69a2.68 2.68 0 0 1 .67-.25 3.72 3.72 0 0 1 .55-.09 9.93 9.93 0 0 1 1.49 0h.42a1.76 1.76 0 0 0 1.35-.45.71.71 0 0 0 .11-.65 2.76 2.76 0 0 0-.75-1.08 6.28 6.28 0 0 1-.63-.74 2.78 2.78 0 0 1-.06-2.65 1.05 1.05 0 0 1 .43-.58c.12-.05.26 0 .45.09l.14.06a7.15 7.15 0 0 0 3.64-.06 1.37 1.37 0 0 1-.11.28 6 6 0 0 0-.47 2.8M57.74 37c.17 0 .39 0 .63.08.68.11 1.46.23 1.87-.11a.77.77 0 0 0 .27-.6 3.67 3.67 0 0 0-.06-1 .73.73 0 0 0 .69.16c0 .07 0 .17.07.24v.07a.74.74 0 0 0 .56.52.6.6 0 0 0 .21 0 2.94 2.94 0 0 1-.49 1.39 3.2 3.2 0 0 1-.56.4c-1.44-.29-2.9-.51-4.36-.69a2.06 2.06 0 0 1 1.17-.46M59 32.86a13.47 13.47 0 0 0 .82-1.32c.23.21.48.46.74.76a3 3 0 0 0-.57.23 1.18 1.18 0 0 0-.62.74 4.65 4.65 0 0 0-.41-.44m1 3.47a.29.29 0 0 1-.09.24c-.24.2-1 .09-1.47 0a6.59 6.59 0 0 0-.68-.09 2.43 2.43 0 0 0-1.74.78l-.17.16c-1-.1-1.92-.18-2.87-.23h.17a10.91 10.91 0 0 0 5.52-3.93 4 4 0 0 1 1.37 3.1m11.95 2h-4.62L66 39.44a58.58 58.58 0 0 0-4.34-1.11 1.89 1.89 0 0 0 .25-.23 3.75 3.75 0 0 0 .65-2l.3-.43a3.62 3.62 0 0 1 1.06-1.19 7.29 7.29 0 0 1 1.93-.53H66c.56 0 1.72 0 2-.71a.88.88 0 0 0-.26-1.08.88.88 0 0 1-.14-.16l-.06-.12a1.07 1.07 0 0 1 .08-1.46.24.24 0 0 0 .08-.09 6.35 6.35 0 0 0 1.81 2.59 5.37 5.37 0 0 0 2.66 1.22 8.2 8.2 0 0 1 1.3.21 1.11 1.11 0 0 1 .44.77 1.27 1.27 0 0 1-.52 1.31 3 3 0 0 0-1.45 1.88v.12m-7.12-14.3a4.13 4.13 0 0 0 2 .87 5 5 0 0 1 1.29.48 1.8 1.8 0 0 1 .06.57 7 7 0 0 1-3.55.12h-.11a1 1 0 0 0-.84-.1 1.43 1.43 0 0 0-.71.85 3.26 3.26 0 0 0 .11 3.08 6.88 6.88 0 0 0 .67.8 2.39 2.39 0 0 1 .63.86.22.22 0 0 1 0 .22 1.33 1.33 0 0 1-.95.26H63a9.53 9.53 0 0 0-1.86.06 11.28 11.28 0 0 0-1-1l-.14-.12a15.19 15.19 0 0 0 1.48-5.13.7.7 0 0 0 .21-.05l.06.08a1.18 1.18 0 0 0 .93.42c.45 0 .8-.75.86-1.38 0-.31.13-.35.34-.44l.18-.08.28-.13c.41-.2-.06 0 .44-.24m-24.4-.26a11.19 11.19 0 0 1 .19-1.56c.07-.32.13-.63.16-.86a1.13 1.13 0 0 0-.35-1.13 14.38 14.38 0 0 1 2.41-5 9.3 9.3 0 0 1 15.37 0A14.63 14.63 0 0 1 60.95 22l-.26.25a2.59 2.59 0 0 0-.84 1.06 3 3 0 0 0-.19.8.62.62 0 0 0 .08.32.75.75 0 0 0 .56.39s.07.14.07.24a.41.41 0 0 0 0 .08c0 .2.09.49.57.68h.09c-.69 6.3-5.14 11.19-10.52 11.19-5.09 0-9.35-4.39-10.37-10.2a1.06 1.06 0 0 0 .36-1.13v-.2a15.16 15.16 0 0 1-.05-1.68M45.21 9l-.16-.21a1 1 0 0 0 0-.21.92.92 0 0 0-.92-.92h-.18a1 1 0 0 0 .12-.48A1.07 1.07 0 0 0 43 6.16h-.1a1.28 1.28 0 0 0-.68-2 1.28 1.28 0 0 0 .64-1.53 1.36 1.36 0 0 0 .66.16 1.39 1.39 0 0 0 1.38-1.11 1.07 1.07 0 0 0 1.73 0 .92.92 0 0 0 1.76.17l.36 1.92a5.45 5.45 0 0 0-3.34-1 2 2 0 0 0-1.53 1 2.44 2.44 0 0 0 .46 2.57 10.68 10.68 0 0 0 2 2.2c-.39.13-.77.27-1.14.44M44.16 9a.42.42 0 1 1 .42-.42.42.42 0 0 1-.42.42M43 7.8a.57.57 0 1 1 .57-.57.57.57 0 0 1-.57.57m-1.13-1.59a.78.78 0 1 1 .78-.78.78.78 0 0 1-.78.78m-1-3.14a.78.78 0 1 1 .78.78.78.78 0 0 1-.78-.78M43.54.58a.89.89 0 1 1-.89.89.89.89 0 0 1 .89-.89M45.78.5a.57.57 0 1 1-.57.57.57.57 0 0 1 .57-.57m1.76.64a.42.42 0 1 1 0 .83.42.42 0 0 1 0-.83m2.19-.48c0-.13.15-.14.24-.14h1.11c.09 0 .24 0 .24.14a1 1 0 0 0 .89.95L51 7.93h-1L48.86 1.6a1 1 0 0 0 .87-.94M51.54 8l.66-3.54a5.47 5.47 0 0 1 3.38-1.14 1.45 1.45 0 0 1 1.15.7 2.08 2.08 0 0 1-.43 2.17 9.07 9.07 0 0 1-2.13 2.21 13.29 13.29 0 0 0-2.63-.4m-4.63.44a9 9 0 0 1-2.14-2.26A2.08 2.08 0 0 1 44.35 4a1.45 1.45 0 0 1 1.15-.7 5.47 5.47 0 0 1 3.38 1.14L49.53 8a13.39 13.39 0 0 0-2.61.46zm8.54 3.78a9.45 9.45 0 0 0-9.84 0 4.51 4.51 0 0 0 .15-1.22 11.07 11.07 0 0 1 9.55 0 4.42 4.42 0 0 0 .13 1.17m-.08-1.7a11.57 11.57 0 0 0-9.64 0 2.92 2.92 0 0 0-.3-1 12.89 12.89 0 0 1 10.27 0 2.92 2.92 0 0 0-.33 1m-2.68-8.59a.92.92 0 0 0 1.76-.16 1.07 1.07 0 0 0 1.73 0 1.39 1.39 0 0 0 1.37 1.17 1.36 1.36 0 0 0 .66-.16 1.21 1.21 0 0 0-.06.39 1.28 1.28 0 0 0 .7 1.14 1.28 1.28 0 0 0-.68 2h-.1a1.07 1.07 0 0 0-1.06.97 1.06 1.06 0 0 0 .12.48h-.18a.92.92 0 0 0-.92.92 1 1 0 0 0 0 .24l-.16.13a11.76 11.76 0 0 0-1.14-.44 10.66 10.66 0 0 0 2-2.2 2.42 2.42 0 0 0 .46-2.57 1.94 1.94 0 0 0-1.53-1 5.45 5.45 0 0 0-3.34 1zm.87-.74a.42.42 0 1 1-.42.42.42.42 0 0 1 .42-.42M55.31.5a.57.57 0 1 1-.57.57.57.57 0 0 1 .57-.57m2.24.08a.89.89 0 1 1-.88.89.89.89 0 0 1 .88-.89m1.88 1.71a.78.78 0 1 1-.78.78.78.78 0 0 1 .78-.78M60 5.44a.78.78 0 1 1-.78-.78.78.78 0 0 1 .78.78M58.07 7.8a.57.57 0 1 1 .57-.57.57.57 0 0 1-.57.57M56.93 9a.42.42 0 1 1 .41-.42.42.42 0 0 1-.41.42m6.32 11.84a4.48 4.48 0 0 1-.71.3 4.92 4.92 0 0 0-1.14.44 16.12 16.12 0 0 0-.65-2.49l2.21.14a5.81 5.81 0 0 0 .29 1.61M59.85 16a1.75 1.75 0 0 0 1.52 1.48 1.57 1.57 0 0 0 1.14-.58 1 1 0 0 0 .3.64 1 1 0 0 0 .52.24 2.57 2.57 0 0 0-.34 1l-2.43-.15A14.78 14.78 0 0 0 59.24 16a3.26 3.26 0 0 0 .61 0m3.48-2.34l1.06-.07a3.9 3.9 0 0 0 3.69-2.68v-.06a3.23 3.23 0 0 0 0-1.16v-.33l-.3.12a9.76 9.76 0 0 1-1.66.41 3.18 3.18 0 0 0-1.7.59.12.12 0 0 1-.08.05s-.11 0-.2-.17a8.17 8.17 0 0 0-.54-.68v-.06c0-.06.08-.18.41-.27l.36-.08c.42-.08.85-.17.88-.84a.66.66 0 0 0-.27-.52 2.39 2.39 0 0 0-1.73-.24h-.07a.51.51 0 0 1-.1-.22 1 1 0 0 1 0-.27c0-.11 0-.14.06-.15a.57.57 0 0 0 .21-.45 1.39 1.39 0 0 0-.35-.53v-.11a.91.91 0 0 1-.08-.29.17.17 0 0 1 0-.07.33.33 0 0 1 .23-.11 3.57 3.57 0 0 1 .93 0 2.91 2.91 0 0 0 .62 0 2.48 2.48 0 0 0 .65-.26 1.78 1.78 0 0 1 .65-.28h1.89a5 5 0 0 0 2.37-1 .43.43 0 0 1 .18-.12 2.49 2.49 0 0 1 .18.66 3.3 3.3 0 0 0 .31 1 4.14 4.14 0 0 0 .71.83 5.6 5.6 0 0 1 .45.47 4.58 4.58 0 0 1 .4.82A4.22 4.22 0 0 0 73.18 9c.33.31 1.15 1.09 2 .91l-.24.22c-.3.26-.61.52-.61.83a1.42 1.42 0 0 0 .21.67.25.25 0 0 1 .06.15.54.54 0 0 1-.19.33c-.32.34-.43.54-.43.76a1 1 0 0 0 .07.33 1.27 1.27 0 0 1 .08.3h-.09a1.16 1.16 0 0 1-.33.14c-.57.12-.86.44-.86.94v.57a.25.25 0 0 1 0 .06h-.25c-.34.08-.85.2-.89 1.14v.37c0 .72-.06 1.06-.28 1.09a.86.86 0 0 1-.77-.41c0-.09-.12-.41-.13-.45-.32-1-.21-.74-.66.12l-.24.46a1.93 1.93 0 0 1-.74.87l-.1.06a.14.14 0 0 1-.11 0c-.06 0-.13-.13-.18-.35a10.18 10.18 0 0 1-.2-1.34c0-.68.69-1.38-.76-.23l-.29.19c-.19.12-1.3.61-1.61.74-.11 0-.48.07-.48 0a.44.44 0 0 1 0-.12c.17-.61.46-.48-.55-.38h-.63c-.26 0-.61.06-.79-.11a.57.57 0 0 1-.15-.43 1.45 1.45 0 0 1 1.13-1.49c.61-.12 3-.38 4-.47A4.08 4.08 0 0 0 71.4 13a7.55 7.55 0 0 0 .4-3.77c-.09-.38-.48-1-.24.11a6.7 6.7 0 0 1-.59 3.4 3.61 3.61 0 0 1-2.85 1.55c-1 .09-3.43.35-4.09.47a1.94 1.94 0 0 0-1.39 1.17c-.23.32-.75 1.06-1.27 1s-1.06-.73-1.06-1.34c-.05-1.82.84-1.87 3-2M83 16.73a1.21 1.21 0 0 1 .15-.55 1.23 1.23 0 0 0 .22-.61.5.5 0 0 0-.07-.26c-.18-.3-.58-.29-.88-.27h-.22a4.66 4.66 0 0 1-.48-.18 4.91 4.91 0 0 0-1-.34 2.39 2.39 0 0 0-.85.13 3.11 3.11 0 0 1-1.05.15 4.66 4.66 0 0 1-1-.34 3.35 3.35 0 0 0-2.45.06 3.71 3.71 0 0 0-2 1.74 5.47 5.47 0 0 0 .19 4.8c.27.5 1.23 2.12 1.73 2.81l.05.05a1.66 1.66 0 0 0-.83 1.63 2.39 2.39 0 0 0 0 .33c0 .27.12.43.27.5a.29.29 0 0 0 .29 0 1.62 1.62 0 0 1 1-.26 1.46 1.46 0 0 1 1.42 1.4 2 2 0 0 1-1.8 2 1.46 1.46 0 0 1-1.54-.91 5.41 5.41 0 0 0-.54-2 1.63 1.63 0 0 0-.23-.27c-.29-.27-.72-.69-.82-2.52A14.39 14.39 0 0 0 71 18.6a1.13 1.13 0 0 0 .4 0c.67-.08.7-.84.72-1.57v-.36c0-.56.21-.6.5-.67h.18a.54.54 0 0 0 .46-.6v-.5a.42.42 0 0 1 0-.06c0-.29.17-.38.46-.45h.06a1.61 1.61 0 0 0 .45-.19h.08a.49.49 0 0 0 .27-.47 1.49 1.49 0 0 0-.1-.46.55.55 0 0 1 0-.17c0-.1.07-.19.28-.42a1 1 0 0 0 .33-.69.74.74 0 0 0-.14-.42 1 1 0 0 1-.13-.44c0-.1.3-.34.44-.46l.29-.26a.8.8 0 0 0 .2-.52.53.53 0 0 0-.1-.33.3.3 0 0 0-.39-.07c-.55.27-1.21-.25-1.71-.73a4.08 4.08 0 0 1-.6-1.14 4.44 4.44 0 0 0-.47-.94A5.36 5.36 0 0 0 72 6a3.81 3.81 0 0 1-.63-.72 3 3 0 0 1-.25-.87 2.59 2.59 0 0 0-.25-.83.51.51 0 0 0-.39-.26.8.8 0 0 0-.59.29 4.68 4.68 0 0 1-2 .8h-1.92a2.17 2.17 0 0 0-.81.29 2 2 0 0 1-.51.21 2.42 2.42 0 0 1-.52 0A3.93 3.93 0 0 0 63 5a.78.78 0 0 0-.57.37.93.93 0 0 0 0 .78l.07.15c.11.23.16.37.09.43a.88.88 0 0 0-.16.95.8.8 0 0 0 .36.52.56.56 0 0 0 .46 0 1.92 1.92 0 0 1 1.28.15.16.16 0 0 1 .08.14c0 .27 0 .28-.47.37l-.39.08a1 1 0 0 0-.75.55.51.51 0 0 0 0 .45l.11.14a7.42 7.42 0 0 1 .52.64.74.74 0 0 0 .61.38.6.6 0 0 0 .44-.23 2.66 2.66 0 0 1 1.42-.48 9.28 9.28 0 0 0 1.57-.39v.15a1.53 1.53 0 0 1-.05.47v.06a3.36 3.36 0 0 1-3.25 2.34l-1.05.07c-2.09.11-3.49.19-3.49 2.34a2.87 2.87 0 0 1-.93-.08l-.31-.35a11.84 11.84 0 0 0-2.45-2.41 3 3 0 0 1 .3-3.26.91.91 0 0 0 .49.14.92.92 0 0 0 .92-.92.94.94 0 0 0-.07-.35 1.12 1.12 0 0 0 .29 0A1.07 1.07 0 0 0 59 6.7h.22a1.28 1.28 0 0 0 .58-2.4 1.28 1.28 0 1 0-.95-2.37 1.35 1.35 0 0 0 .08-.46 1.39 1.39 0 0 0-2.6-.67 1.07 1.07 0 0 0-2.1.16.92.92 0 0 0-1.54.24h-.24a.58.58 0 0 1-.63-.54c0-.34-.31-.57-.75-.57H50c-.44 0-.75.24-.75.57a.59.59 0 0 1-.63.54h-.21a.92.92 0 0 0-1.57-.2 1.07 1.07 0 0 0-2.09-.21 1.39 1.39 0 0 0-2.52 1.13 1.26 1.26 0 0 0-.57-.14 1.28 1.28 0 0 0-.38 2.51 1.28 1.28 0 0 0 .59 2.42h.22a1 1 0 0 0-.14.53A1.07 1.07 0 0 0 43 8.29a1.11 1.11 0 0 0 .29 0 1 1 0 0 0-.07.35.92.92 0 0 0 .92.92.9.9 0 0 0 .54-.17c.65.49.76 2.07.23 3.27A11.68 11.68 0 0 0 42.43 15a14.68 14.68 0 0 0-2.17 4.09 4.68 4.68 0 0 0-.26-2.37c-.93-2.21-2.9-3-4.21-3.7l-.68-.36a5.89 5.89 0 0 1-1.91-1.74l-.24-.3h.08a3.29 3.29 0 0 1 1.27.5l.41.34a6.28 6.28 0 0 0 .72.58 1.26 1.26 0 0 0 1.18-.04.44.44 0 0 0 .15-.36 1.21 1.21 0 0 0-.09-.42v-.15l.22.09a.87.87 0 0 0 .93-.45 1.18 1.18 0 0 0-.43-1.49c-.31-.26-1.2-1.14-1.92-1.84s-1-1-1.15-1.12a3.38 3.38 0 0 1-.44-.48.61.61 0 0 0 0-.6.48.48 0 0 0-.48-.18h-.23a9.32 9.32 0 0 0 .47-1.44 1.88 1.88 0 0 0-.28-1.75 1.14 1.14 0 0 0-1-.34 2.63 2.63 0 0 0-1.5 1l-.13-.41-.26.08-1.23.4.14.44a2.69 2.69 0 0 0-1.87 0 1.14 1.14 0 0 0-.64.88 1.87 1.87 0 0 0 .79 1.58c.21.18.4.32.56.44l-.12.12-.48.46-.19.2a5.82 5.82 0 0 1-3 1.44.31.31 0 0 0-.28.26c0 .26.23.57.69.76s.55.79.33 2a.41.41 0 0 0 .08.42c.15.14.38.11.77 0h.23c0 .06 0 .15-.05.21v.24A5.33 5.33 0 0 0 26 13a1.43 1.43 0 0 0 .08.5 5 5 0 0 0 .75 1.21.56.56 0 0 0 .42.19.67.67 0 0 0 .46-.28 2.58 2.58 0 0 1 .1.26 2.36 2.36 0 0 0 1.64 1.66.85.85 0 0 0 .68 0 .74.74 0 0 0 .32-.5 2.59 2.59 0 0 0 .06-.39v-.1l.07.08a6 6 0 0 1 1.08 3.3 4.33 4.33 0 0 1-.13 1.07 9.31 9.31 0 0 1-.53 1.44c-.13.28-.22.56-.32.82a9.26 9.26 0 0 1-1.8 1.18l-.35.19a5.69 5.69 0 0 0-2.31 4.06v.11c-1 .33-1.61.29-2-.15-.74-.91-.18-1.82.63-2.92l.25-.34.25-.34.24-.31v.18l.1.43.08.34a.41.41 0 0 0 .34.37c.11 0 .3.21.8-.72.11-.2.31-.54.54-.89l.38-.6a1 1 0 0 0-.32-1.52c-.25-.17-.23-.26 0-.67l.06-.12c.2-.39 1-2.94-.16-4.74-.82-1.26-2-2.43-3.53-2.07a7 7 0 0 0-2.05.87 5 5 0 0 1-1.86.74 16 16 0 0 0-1.74.48c-.16.05-.38.12-.39.35 0 .25.27.37.61.53a1.85 1.85 0 0 1 .65.43 8.53 8.53 0 0 1-1.1 1.23.45.45 0 0 0-.23.38.44.44 0 0 0 0 .07c0 .25.31.42.77.5v.08a3 3 0 0 0 .21 1.84l.07.11a6.83 6.83 0 0 1 .96 1.66 1.23 1.23 0 0 1-.06.37.87.87 0 0 0 0 .66.48.48 0 0 0 .31.21c.54.12.74-.31.9-.66l.07-.18c.22-.44.52-1 .89-1.66l.24-.37a4.31 4.31 0 0 0 .87-2.62h.18a.79.79 0 0 0 .32 0h.1c.19 0 .44-.09.5-.33s-.15-.43-.35-.59a1.91 1.91 0 0 1-.4-1.58c.11-.39.29-.6.57-.65a2.41 2.41 0 0 1 1.85 1.1 3 3 0 0 1 .51 1.67 2.29 2.29 0 0 1-.05.5c-.13.57-.24.63-.24.63h-.34a1.62 1.62 0 0 0-1.19.26l-.1.07c-.24.16-.57.38-.52.71s.36.45.6.53a.34.34 0 0 1 .25.24 2.16 2.16 0 0 1-.55 1.44l-.15.18-.35.47c-1.42 1.82-1.88 3.58-1.27 4.83.37.75 1.3 1.65 3.6 1.65a3.2 3.2 0 0 1-.4 1.12 2.47 2.47 0 0 1-2 1h-.3a.68.68 0 0 0-.52.2c-.2.23-.26.66-.2 1.53a7.32 7.32 0 0 1-.18 2.27 4.7 4.7 0 0 0-.09.54 3 3 0 0 1-.07.41 2.42 2.42 0 0 0-.09.56.68.68 0 0 0 .11.4.63.63 0 0 0 .46.26h.87v.12h-5.93l1.87 3.23L17.77 45h15.84l.89 3a48.54 48.54 0 0 1 16-2.81 48.63 48.63 0 0 1 16 2.81l.89-3H83.1l-1.73-3.36 1.87-3.23H76.5a6.4 6.4 0 0 0 .07-1.24c0-.18-.08-.51-.15-.86s-.15-.77-.15-.89v-1.64c.08-.7-.67-1.26-1-1.53l-.12-.09a6.93 6.93 0 0 1-.93-1 3.39 3.39 0 0 0 4-1.08 6.13 6.13 0 0 0 .8-1.45v-.06a4.43 4.43 0 0 1 .61-1c.34-.3 1.76-2.17 1.31-2.93-.31-.51-1.13-.21-1.4-.12s-.23 0-.33-.44l-.29-1.28c0-.15 0-.47-.3-.59a.55.55 0 0 0-.54.07.31.31 0 0 1-.25.06.36.36 0 0 1-.18-.19c-.07-.17-.19-.57-.26-.81l-.06-.18v-.13c0-.17-.09-.4-.32-.46s-.4.11-.56.28-.23.27-.33.4a3.23 3.23 0 0 1-1.2-3.25A2.21 2.21 0 0 1 76 16.24a2.69 2.69 0 0 1 2 0l.12.06a1.58 1.58 0 0 1 .22.12l-.08.06a1.78 1.78 0 0 0-.51 1.24 4.53 4.53 0 0 0 1.51 2.7 4.48 4.48 0 0 0 .86 2.92 1.14 1.14 0 0 0 .89.3 5 5 0 0 0 1.45-.58c.13-.06.52-.45-.1-.61s-.46-.73-.43-1a5.19 5.19 0 0 1 .49-1.44 1.46 1.46 0 0 0 .12-.62 3.24 3.24 0 0 0-.23-1.1 1.36 1.36 0 0 0 .33-.07.89.89 0 0 0 .61-.56.63.63 0 0 0 0-.16.73.73 0 0 0-.18-.46.58.58 0 0 1-.12-.37"/><path class="cls-1" d="M67.39 5.84a1.46 1.46 0 0 0-1.1-.2.26.26 0 0 0-.22.22c0 .13.28.38.43.49a.75.75 0 0 0 .61.05 3.12 3.12 0 0 1 .49-.16c.21-.05.17-.16.12-.2s-.21-.12-.32-.21m-34.85 1.7a4.53 4.53 0 0 0 .63.35c.36.14.4 0 .51-.36s-.11-.35-.24-.35h-.74c-.52.06-.27.26-.16.31M17.21 72.89v.34h-4.83v-.34h1.68V61.14h-1.68v-.33h4.83v.33h-1.69v11.75zm15.33 0v.34h-4.83v-.34h1.68V61.14h-1.68v-.33h4.83v.33h-1.68v11.75zm11.67-12.08v.33H42.5v11.75h1.7v.34h-4.82v-.34h1.68V61.13H36.4v11.76h1.69v.34h-4.83v-.34h1.69V61.14h-1.69v-.33zm6.62.19v10c0 1.31.38 1.83 1.27 1.83h.56v.34h-4v-.34H49c1 0 1.51-.57 1.51-1.71v-8.83c0-.84-.38-1.15-1.38-1.15h-.43v-.33h3.46l2.5 9.7 2.64-9.7h3.27v.33h-1.7v11.75h1.69v.34h-4.74v-.34h1.68L57.57 61l-3.32 12.23H54zM65 73.11a2.47 2.47 0 0 1-2.19-1.55 4.35 4.35 0 0 1-.38-1.31 24.9 24.9 0 0 1-.11-2.82V67a25.22 25.22 0 0 1 .16-3.5 4.06 4.06 0 0 1 .58-1.5A2.37 2.37 0 0 1 65 60.93 2.4 2.4 0 0 1 66.9 62a4.08 4.08 0 0 1 .57 1.5 21.87 21.87 0 0 1 .18 3.5 26.07 26.07 0 0 1-.12 3.18 4 4 0 0 1-.37 1.34A2.44 2.44 0 0 1 65 73.11zm0-12.49c-1.44 0-2.69 1-3.53 2.74a8.93 8.93 0 0 0-.8 3.86A7.53 7.53 0 0 0 62 71.8a3.51 3.51 0 0 0 5.93 0 7.5 7.5 0 0 0 1.36-4.58A8.08 8.08 0 0 0 67.61 62 3.45 3.45 0 0 0 65 60.61zm7.51 6.23v-5.71h1.88a2.45 2.45 0 0 1 1.81.52 3.5 3.5 0 0 1 .48 2.24 4.1 4.1 0 0 1-.47 2.43c-.3.35-1 .52-2.07.52zm0 6v-5.67h1.86c2.59 0 3.93-1 3.93-3a3.11 3.11 0 0 0-1.06-2.45 4 4 0 0 0-2.75-.94h-5.13v.33H71v11.77h-1.64v.34h4.83v-.34zm8.96-6v-5.71h1.88a2.42 2.42 0 0 1 1.81.52 3.49 3.49 0 0 1 .49 2.24 4.13 4.13 0 0 1-.47 2.43c-.3.35-1 .52-2.07.52zm0 6v-5.67h1.86c2.59 0 3.93-1 3.93-3a3.12 3.12 0 0 0-1.06-2.45 4 4 0 0 0-2.75-.94h-5.13v.33H80v11.77h-1.68v.34h4.83v-.34zm11.04.04v.34h-4.83v-.34h1.69V61.14h-1.69v-.33h4.83v.33h-1.69v11.75zm8.16-7.65c-.75-2.77-1.93-4.29-3.34-4.29-1.75 0-2.64 1.9-2.64 5.66 0 4.45.83 6.5 2.66 6.5 1.55 0 2.59-1.52 3.41-5h.24v5.31l-1.21-1.57a2.76 2.76 0 0 1-2.38 1.57 3.79 3.79 0 0 1-3.15-2.06A8.24 8.24 0 0 1 93.05 67a8 8 0 0 1 1-4 4 4 0 0 1 3.32-2.38 2.92 2.92 0 0 1 2.31 1.47l1.18-1.47v4.63zM10.76 63.1a4.89 4.89 0 0 0-3.49-1.28h-.48v-.69h1.69v-.33H3.64v.33h1.69v.69h-.48a4.89 4.89 0 0 0-3.49 1.28A4.31 4.31 0 0 0 0 66.4a4.65 4.65 0 0 0 2.05 4 4.07 4.07 0 0 0 1.34.56 10.35 10.35 0 0 0 1.94.16v1.8H3.64v.34h4.84v-.34H6.79v-1.8a10.33 10.33 0 0 0 1.94-.16 4 4 0 0 0 1.34-.56 4.64 4.64 0 0 0 2.05-4 4.31 4.31 0 0 0-1.36-3.3zm-8.14 7c-.68-.68-1-1.73-1-3.55A6.25 6.25 0 0 1 2.36 63 3.11 3.11 0 0 1 5 62.07h.38v8.77c-1.56-.01-2.24-.23-2.75-.74zm6.87 0c-.51.51-1.2.72-2.7.74v-8.77h.38a3.1 3.1 0 0 1 2.59.93 6.26 6.26 0 0 1 .71 3.56c0 1.81-.3 2.86-.98 3.54zm9.77 3.25c.7 0 1.71-.63 1.85-2.24l.11-2.15s.09-4 .19-6c.06-1.38.8-1.78 1.68-1.78h.79v11.71h-1.7v.33H27v-.33h-1.68V61.14H27v-.33h-7.57v.32h.2S21 61 21 62.92c0 1.21-.1 4.54-.17 6.45 0 .84-.11 1.84-.11 1.84A1.77 1.77 0 0 1 19.33 73a1.5 1.5 0 0 1-1.53-1.38 1.54 1.54 0 0 1 0-.34.77.77 0 0 0 .75.49.88.88 0 0 0 .85-1 .84.84 0 0 0-.87-.89 1.23 1.23 0 0 0-1.11 1.42c.03 1.14.7 2.07 1.84 2.05zm49.18 5.23h1.69v4.93h-4.67v-4.93h1.69v-.33h-4.84v.33H64v11.73h-1.69v.33h4.84v-.33h-1.69v-6.47h4.67v6.47h-1.69v.33h4.84v-.33h-1.7V78.58h1.7v-.33h-4.84v.33zm14.37 11.75l-3.7-12.24h-.38l-2.93 9.77c-.47 1.55-.9 2.33-2 2.47v.33h3.76v-.33h-.35A1.17 1.17 0 0 1 75.93 89a2.92 2.92 0 0 1 .14-.91l.42-1.42h3.76l1.06 3.63h-1.46v.33h4.08v-.33zm-6.22-3.93l1.79-6 1.76 6zM55.3 90.33l-3.7-12.24h-.38l-2.92 9.77c-.47 1.55-.9 2.33-2 2.47v.33H50v-.33h-.35A1.17 1.17 0 0 1 48.42 89a3 3 0 0 1 .14-.91l.44-1.38h3.76l1.06 3.63h-1.48v.33h4.08v-.33zm-6.22-3.93l1.79-6 1.76 6zm-7.26-2.11v-5.71h1.88a2.45 2.45 0 0 1 1.81.52 3.5 3.5 0 0 1 .49 2.24 4.09 4.09 0 0 1-.47 2.43c-.3.35-1 .52-2.07.52zm0 6v-5.67h1.86c2.59 0 3.93-1 3.93-3a3.11 3.11 0 0 0-1.06-2.45 4 4 0 0 0-2.75-.94h-5.12v.33h1.69v11.77h-1.69v.34h4.83v-.34zm-4.92.03l-4.13-7.79 1.74-2.05a16.05 16.05 0 0 1 1.26-1.34 2.58 2.58 0 0 1 1.86-.57v-.32h-4.37v.32a3.14 3.14 0 0 1 .86.1.73.73 0 0 1 .57.69 1.69 1.69 0 0 1-.5 1l-3.78 4.34v-6.12h1.66v-.33h-4.85v.33h1.7v11.74h-1.7v.34h4.85v-.34h-1.66v-5l1.4-1.58 3.42 6.61h-1.66v.33h4.29v-.34zm-16.42.08a1.63 1.63 0 0 0 1.18-.69 6.28 6.28 0 0 0 .5-.89l-4-10.26H17v-.31h4v.31h-1.24L23 86.87l2.08-6.34a4.93 4.93 0 0 0 .22-1.16.73.73 0 0 0-.71-.8h-.22v-.31H27v.31c-.94 0-1.31 1-1.4 1.28l-2.18 6.85a17.72 17.72 0 0 1-.74 1.86 6.06 6.06 0 0 1-1 1.61 1.78 1.78 0 0 1-1.34.58c-1.13 0-1.8-.9-1.85-2.09a1.23 1.23 0 0 1 1.11-1.42.84.84 0 0 1 .87.89.88.88 0 0 1-.85 1 .77.77 0 0 1-.75-.49v.05a1.62 1.62 0 0 0 0 .34 1.5 1.5 0 0 0 1.53 1.38zm41.31-11.79v-.33h-4.84v.33h1.69v11.72h-1.69v.34h4.84v-.34h-1.68V78.61h1.68z"/><circle class="cls-1" cx="57.95" cy="76.18" r=".83"/><circle class="cls-1" cx="60.74" cy="76.18" r=".83"/></g></g></svg>