<svg xmlns="http://www.w3.org/2000/svg" viewBox="0 0 106.7 17.4"><g data-name="L2"><path d="M2.6 12.2v5H0V3.7h2.6V5a3.8 3.8 0 0 1 3-1.5c2.5 0 4.3 1.9 4.3 5.1s-1.8 5.2-4.3 5.2a3.7 3.7 0 0 1-3-1.6zm4.6-3.6a2.5 2.5 0 0 0-2.4-2.8 2.9 2.9 0 0 0-2.2 1v3.5a3 3 0 0 0 2.2 1.1c1.5 0 2.4-1.1 2.4-2.8zm4 0a5 5 0 0 1 5.1-5.1 5 5 0 0 1 5.2 5 5 5 0 0 1-5.2 5.2 5 5 0 0 1-5.1-5.1zm7.6 0a2.5 2.5 0 1 0-5 0 2.5 2.5 0 1 0 5 0zM32 13.5l-2.1-6.7-2 6.7H25l-3-9.8h2.7l1.8 6.6 2.1-6.6H31l2.1 6.6L35 3.7h2.7l-3 9.8zm6.3-4.9a5 5 0 0 1 5-5.1c3 0 5 2.1 5 5.3v.6H41a2.6 2.6 0 0 0 2.8 2.3 4.2 4.2 0 0 0 2.6-1l1.2 1.6a6 6 0 0 1-4 1.4 5 5 0 0 1-5.3-5.1zm5-3a2.4 2.4 0 0 0-2.3 2h4.8a2.3 2.3 0 0 0-2.4-2zm6.8 7.9V3.7h2.6V5a4.2 4.2 0 0 1 3.1-1.5V6a3.4 3.4 0 0 0-.7 0 3.3 3.3 0 0 0-2.4 1v6.5zm6.7-4.9a5 5 0 0 1 5-5.1c3 0 5 2.1 5 5.3v.6h-7.3a2.6 2.6 0 0 0 2.8 2.3 4.2 4.2 0 0 0 2.6-1l1.1 1.7a6 6 0 0 1-4 1.3 5 5 0 0 1-5.2-5.1zm5-3a2.4 2.4 0 0 0-2.4 2h4.8a2.3 2.3 0 0 0-2.4-2zm13.5 7.9v-1.3a3.8 3.8 0 0 1-3 1.5c-2.5 0-4.3-1.8-4.3-5s1.8-5.2 4.3-5.2a3.8 3.8 0 0 1 3 1.5V0h2.6v13.5zm0-3.2V7A2.8 2.8 0 0 0 73 5.8a2.5 2.5 0 0 0-2.5 2.8 2.5 2.5 0 0 0 2.5 2.8 2.8 2.8 0 0 0 2.2-1zm10.3 3.2V0h2.6v5a3.8 3.8 0 0 1 3-1.5c2.4 0 4.3 2 4.3 5.1s-1.9 5.2-4.3 5.2a3.8 3.8 0 0 1-3-1.5v1.2zm4.8-2a2.5 2.5 0 0 0 2.4-2.8c0-1.7-1-2.9-2.4-2.9A2.8 2.8 0 0 0 88.2 7v3.5a2.9 2.9 0 0 0 2.2 1zm7.1 3.5a2.2 2.2 0 0 0 .8.2 1.3 1.3 0 0 0 1.3-.7l.4-.9-4-9.9h2.8l2.5 6.8 2.5-6.8h2.8L102 15.1a3.5 3.5 0 0 1-3.7 2.4 7 7 0 0 1-1.2-.2z" data-name="L1"/></g></svg>