<svg xmlns="http://www.w3.org/2000/svg" viewBox="0 0 242.3 140.1"><g data-name="Слой 2"><g data-name="L1"><path d="M12.8 0A11.5 11.5 0 0 1 21 3.2L18.7 7A8.2 8.2 0 0 0 13 4.6a6.4 6.4 0 0 0-6.6 6.7 6.6 6.6 0 0 0 6.8 6.8 9.7 9.7 0 0 0 6.3-2.8l2.1 3.9a12.5 12.5 0 0 1-9 3.5C5.7 22.7 1 17.7 1 11.4S5.6 0 12.8 0zm30.6 5.1h-7.1V.5H56v4.6h-7.2v17.1h-5.4V5.1zm39.8 3.5h1v-.3c0-2.9-1.9-3.8-4.1-3.8a11.1 11.1 0 0 0-6 2L72 2.7A14.8 14.8 0 0 1 80.5 0c5.7 0 9 3.1 9 8.6v13.6h-5v-1.8a9.5 9.5 0 0 1 .2-1.6h-.1a8 8 0 0 1-6.9 3.9c-3.9 0-7.1-2.6-7.1-6.5 0-6.5 7.8-7.6 12.6-7.6zm-4 10c3 0 5-3 5-5.7v-.6h-1c-2.7 0-7.2.4-7.2 3.4 0 1.5 1 2.9 3.2 2.9z"/><path d="M127.7 8.2v6.4L106 22.3v-5.7l13.4-4.4a27.8 27.8 0 0 1 3.3-.8 29.8 29.8 0 0 1-3.3-.9L106 6V.4l21.7 7.8z" fill="#47c66e"/><path d="M153.3 0c6.7 0 12 4.7 12 11.3s-5.3 11.4-12 11.4-11.8-4.7-11.8-11.3S146.8 0 153.3 0zm0 18.1a6.5 6.5 0 0 0 6.5-6.8 6.5 6.5 0 1 0-12.9 0 6.4 6.4 0 0 0 6.5 6.8zM0 65.7C0 55 3.8 50.3 11.3 49.3c3.7-.5 5-1 5-1.8h6c0 4.2-5.6 5.4-9.1 5.8-5.2.7-7.3 3-8 5.5a9.2 9.2 0 0 1 7.5-3.6C19 55.2 23 60.6 23 66.6s-4.2 11.5-11.5 11.5S0 72.8 0 65.7zm17.1.9c0-3.3-2-6.3-5.6-6.3S6 63.3 6 66.6C6 70 8 73 11.5 73s5.6-2.9 5.6-6.4zm18 .1a11 11 0 0 1 11.5-11.5c7.3 0 11.6 5.3 11.6 11.5S53.9 78 46.6 78s-11.5-5-11.5-11.3zm17.1 0c0-3.4-2-6.4-5.6-6.4s-5.5 3-5.5 6.4 2 6.3 5.5 6.3 5.6-2.9 5.6-6.3zm17.3 6.8c1.7 0 2.8-1.9 3.4-7.1l1.4-10.6H92v21.8h-5.7V60.8h-7l-.7 6.2c-.9 7.5-3.6 11.1-9.1 11.1zm43-17.7v7.5h7.4c5 0 7.6 3.3 7.6 7.1s-2.7 7.2-7.6 7.2h-13.2V55.8zm0 12.3v4.7h6.6a2.4 2.4 0 1 0 0-4.7zm59.8-12.3v21.8h-31.5V55.8h5.7v16.8h7.1V55.8h5.8v16.8h7V55.8zm13.3 10.9a11.1 11.1 0 0 1 11.3-11.5c6.5 0 11 5 11 12v1.3h-16.3c.4 2.8 2.6 5 6.3 5a9.3 9.3 0 0 0 5.8-2.1l2.5 3.7a13.6 13.6 0 0 1-9 3c-6.6 0-11.6-4.4-11.6-11.4zm11.3-6.9a5.3 5.3 0 0 0-5.4 4.8h10.8a5 5 0 0 0-5.4-4.8zm-180.7 72V115h-9v16.8H1.4V110h20.5v21.8zm26.2-2.8v11.1h-5.8V110h5.8v2.8a8.4 8.4 0 0 1 6.7-3.3c5.6 0 9.7 4.1 9.7 11.4s-4 11.5-9.7 11.5a8.3 8.3 0 0 1-6.7-3.4zm10.4-8.1c0-3.8-2.2-6.4-5.5-6.4a6.4 6.4 0 0 0-5 2.5v7.8a6.6 6.6 0 0 0 5 2.4c3.3 0 5.5-2.5 5.5-6.3zM72 131.8V110h5.7v13.2l9-13.2h5.8v21.8h-5.7v-13.7l-9.3 13.7zm33.9-11.9c0-10.6 3.8-15.4 11.3-16.4 3.7-.5 5-1 5-1.8h6c0 4.2-5.6 5.4-9.1 5.9-5.2.6-7.3 2.9-7.9 5.4a9.2 9.2 0 0 1 7.4-3.5c6.3 0 10.3 5.3 10.3 11.4s-4.2 11.5-11.5 11.5S106 127 106 119.9zm17.1.9c0-3.3-2-6.2-5.6-6.2s-5.6 3-5.6 6.2c0 3.5 2 6.5 5.6 6.5s5.6-3 5.6-6.5zm25.1-10.8v7.5h7.5c5 0 7.6 3.3 7.6 7.1s-2.7 7.2-7.6 7.2h-13.2V110zm0 12.3v4.7h6.6a2.4 2.4 0 1 0 0-4.7zm17.9 9.5V110h5.8v21.8zm18.5-4.1c1.7 0 2.8-1.8 3.4-7.1l1.4-10.6H207v21.8h-5.7V115h-7l-.7 6.2c-.9 7.6-3.6 11.1-9.1 11.1zm37.2 4.1V110h5.8v13.2l9-13.2h5.8v21.8h-5.8v-13.7l-9.2 13.7z"/></g></g></svg>